<svg xmlns="http://www.w3.org/2000/svg" xmlns:xlink="http://www.w3.org/1999/xlink" width="300" zoomAndPan="magnify" viewBox="0 0 224.87999 149.999998" height="200" preserveAspectRatio="xMidYMid meet" version="1.0"><defs><g><g id="id1"/><g id="id2"/><g id="id3"/></g><clipPath id="id4"><path d="M 92 50.957031 L 105 50.957031 L 105 58 L 92 58 Z M 92 50.957031 " clip-rule="nonzero"/></clipPath><clipPath id="id5"><path d="M 89.652344 54 L 99 54 L 99 65 L 89.652344 65 Z M 89.652344 54 " clip-rule="nonzero"/></clipPath><clipPath id="id6"><path d="M 102 58 L 111.238281 58 L 111.238281 69 L 102 69 Z M 102 58 " clip-rule="nonzero"/></clipPath><clipPath id="id7"><path d="M 96 66 L 109 66 L 109 72.542969 L 96 72.542969 Z M 96 66 " clip-rule="nonzero"/></clipPath><clipPath id="id8"><path d="M 90 60 L 98 60 L 98 72.542969 L 90 72.542969 Z M 90 60 " clip-rule="nonzero"/></clipPath></defs><g fill="rgb(100%, 100%, 100%)" fill-opacity="1"><g transform="translate(60.397365, 72.057922)"><g><path d="M 23.796875 0 L 20.671875 0 L 20.640625 -14.953125 L 14.328125 -2.09375 L 12.125 -2.09375 L 5.796875 -14.953125 L 5.796875 0 L 2.625 0 L 2.625 -20.015625 L 6.640625 -20.015625 L 13.234375 -6.71875 L 19.8125 -20.015625 L 23.796875 -20.015625 Z M 23.796875 0 "/></g></g></g><g fill="rgb(100%, 100%, 100%)" fill-opacity="1"><g transform="translate(114.148311, 72.057922)"><g><path d="M 11.546875 0 L 8.0625 0 L 0.078125 -20.015625 L 3.71875 -20.015625 L 9.890625 -3.75 L 16.125 -20.015625 L 19.640625 -20.015625 Z M 11.546875 0 "/></g></g></g><g fill="rgb(100%, 100%, 100%)" fill-opacity="1"><g transform="translate(136.734722, 72.057922)"><g><path d="M 6 0 L 2.625 0 L 2.625 -20.015625 L 6 -20.015625 Z M 6 0 "/></g></g></g><g fill="rgb(100%, 100%, 100%)" fill-opacity="1"><g transform="translate(148.228489, 72.057922)"><g><path d="M 16.921875 -16.984375 L 6 -16.984375 L 6 -11.578125 L 15.78125 -11.578125 L 15.78125 -8.546875 L 6 -8.546875 L 6 -3.03125 L 17.265625 -3.03125 L 17.265625 0 L 2.625 0 L 2.625 -20.015625 L 16.921875 -20.015625 Z M 16.921875 -16.984375 "/></g></g></g><g clip-path="url(#id4)"><path fill="rgb(99.21875%, 92.549133%, 1.179504%)" d="M 104.136719 57.230469 L 102.441406 51.144531 C 99.058594 50.515625 95.433594 51.503906 92.816406 54.117188 C 92.804688 54.132812 92.792969 54.148438 92.773438 54.160156 Z M 104.136719 57.230469 " fill-opacity="1" fill-rule="nonzero"/></g><g clip-path="url(#id5)"><path fill="rgb(99.21875%, 92.549133%, 1.179504%)" d="M 98.441406 56.230469 L 92.371094 54.589844 C 89.875 57.402344 89.097656 61.203125 90.042969 64.628906 Z M 98.441406 56.230469 " fill-opacity="1" fill-rule="nonzero"/></g><path fill="rgb(99.21875%, 92.549133%, 1.179504%)" d="M 110.675781 58.308594 C 110.164062 56.777344 109.292969 55.339844 108.078125 54.117188 C 106.628906 52.667969 104.867188 51.71875 103.007812 51.265625 L 106.21875 62.765625 Z M 110.675781 58.308594 " fill-opacity="1" fill-rule="nonzero"/><g clip-path="url(#id6)"><path fill="rgb(99.21875%, 92.549133%, 1.179504%)" d="M 102.421875 67.292969 L 108.476562 68.960938 C 111.007812 66.144531 111.796875 62.316406 110.84375 58.871094 Z M 102.421875 67.292969 " fill-opacity="1" fill-rule="nonzero"/></g><g clip-path="url(#id7)"><path fill="rgb(99.21875%, 92.549133%, 1.179504%)" d="M 96.640625 66.242188 L 98.230469 72.3125 C 101.671875 73.03125 105.398438 72.054688 108.070312 69.386719 Z M 96.640625 66.242188 " fill-opacity="1" fill-rule="nonzero"/></g><g clip-path="url(#id8)"><path fill="rgb(99.21875%, 92.549133%, 1.179504%)" d="M 90.214844 65.191406 C 90.726562 66.722656 91.597656 68.160156 92.8125 69.382812 C 94.207031 70.777344 95.886719 71.710938 97.660156 72.179688 L 94.664062 60.742188 Z M 90.214844 65.191406 " fill-opacity="1" fill-rule="nonzero"/></g><g fill="rgb(99.21875%, 92.549133%, 1.179504%)" fill-opacity="1"><g transform="translate(88.472524, 86.267653)"><g><path d="M 2.828125 0.078125 C 2.347656 0.078125 1.882812 0.00390625 1.4375 -0.140625 C 0.988281 -0.296875 0.632812 -0.492188 0.375 -0.734375 L 0.71875 -1.453125 C 0.957031 -1.234375 1.269531 -1.050781 1.65625 -0.90625 C 2.039062 -0.769531 2.429688 -0.703125 2.828125 -0.703125 C 3.359375 -0.703125 3.753906 -0.789062 4.015625 -0.96875 C 4.285156 -1.15625 4.421875 -1.398438 4.421875 -1.703125 C 4.421875 -1.921875 4.347656 -2.097656 4.203125 -2.234375 C 4.054688 -2.367188 3.878906 -2.472656 3.671875 -2.546875 C 3.460938 -2.617188 3.164062 -2.703125 2.78125 -2.796875 C 2.289062 -2.910156 1.898438 -3.023438 1.609375 -3.140625 C 1.316406 -3.253906 1.0625 -3.429688 0.84375 -3.671875 C 0.632812 -3.921875 0.53125 -4.25 0.53125 -4.65625 C 0.53125 -5 0.617188 -5.304688 0.796875 -5.578125 C 0.984375 -5.859375 1.257812 -6.082031 1.625 -6.25 C 1.988281 -6.414062 2.441406 -6.5 2.984375 -6.5 C 3.367188 -6.5 3.742188 -6.445312 4.109375 -6.34375 C 4.472656 -6.25 4.785156 -6.109375 5.046875 -5.921875 L 4.75 -5.1875 C 4.476562 -5.363281 4.191406 -5.492188 3.890625 -5.578125 C 3.585938 -5.671875 3.285156 -5.71875 2.984375 -5.71875 C 2.460938 -5.71875 2.070312 -5.617188 1.8125 -5.421875 C 1.5625 -5.234375 1.4375 -4.992188 1.4375 -4.703125 C 1.4375 -4.472656 1.507812 -4.289062 1.65625 -4.15625 C 1.800781 -4.019531 1.976562 -3.910156 2.1875 -3.828125 C 2.40625 -3.753906 2.703125 -3.675781 3.078125 -3.59375 C 3.566406 -3.476562 3.957031 -3.363281 4.25 -3.25 C 4.539062 -3.132812 4.789062 -2.957031 5 -2.71875 C 5.207031 -2.476562 5.3125 -2.15625 5.3125 -1.75 C 5.3125 -1.414062 5.21875 -1.109375 5.03125 -0.828125 C 4.851562 -0.546875 4.578125 -0.320312 4.203125 -0.15625 C 3.835938 0 3.378906 0.078125 2.828125 0.078125 Z M 2.828125 0.078125 "/></g></g></g><g fill="rgb(99.21875%, 92.549133%, 1.179504%)" fill-opacity="1"><g transform="translate(98.753146, 86.267653)"><g><path d="M 2.234375 -5.625 L 0.03125 -5.625 L 0.03125 -6.421875 L 5.34375 -6.421875 L 5.34375 -5.625 L 3.140625 -5.625 L 3.140625 0 L 2.234375 0 Z M 2.234375 -5.625 "/></g></g></g><g fill="rgb(99.21875%, 92.549133%, 1.179504%)" fill-opacity="1"><g transform="translate(108.722019, 86.267653)"><g><path d="M 3.859375 0.078125 C 3.210938 0.078125 2.628906 -0.0625 2.109375 -0.34375 C 1.585938 -0.632812 1.175781 -1.03125 0.875 -1.53125 C 0.582031 -2.03125 0.4375 -2.585938 0.4375 -3.203125 C 0.4375 -3.828125 0.582031 -4.390625 0.875 -4.890625 C 1.175781 -5.390625 1.585938 -5.78125 2.109375 -6.0625 C 2.628906 -6.351562 3.210938 -6.5 3.859375 -6.5 C 4.503906 -6.5 5.085938 -6.351562 5.609375 -6.0625 C 6.128906 -5.78125 6.535156 -5.390625 6.828125 -4.890625 C 7.117188 -4.390625 7.265625 -3.828125 7.265625 -3.203125 C 7.265625 -2.585938 7.117188 -2.03125 6.828125 -1.53125 C 6.535156 -1.03125 6.128906 -0.632812 5.609375 -0.34375 C 5.085938 -0.0625 4.503906 0.078125 3.859375 0.078125 Z M 3.859375 -0.75 C 4.328125 -0.75 4.75 -0.851562 5.125 -1.0625 C 5.507812 -1.28125 5.804688 -1.578125 6.015625 -1.953125 C 6.234375 -2.328125 6.34375 -2.742188 6.34375 -3.203125 C 6.34375 -3.671875 6.234375 -4.09375 6.015625 -4.46875 C 5.804688 -4.84375 5.507812 -5.132812 5.125 -5.34375 C 4.75 -5.5625 4.328125 -5.671875 3.859375 -5.671875 C 3.390625 -5.671875 2.960938 -5.5625 2.578125 -5.34375 C 2.203125 -5.132812 1.90625 -4.84375 1.6875 -4.46875 C 1.46875 -4.09375 1.359375 -3.671875 1.359375 -3.203125 C 1.359375 -2.742188 1.46875 -2.328125 1.6875 -1.953125 C 1.90625 -1.578125 2.203125 -1.28125 2.578125 -1.0625 C 2.960938 -0.851562 3.390625 -0.75 3.859375 -0.75 Z M 3.859375 -0.75 "/></g></g></g><g fill="rgb(99.21875%, 92.549133%, 1.179504%)" fill-opacity="1"><g transform="translate(121.010665, 86.267653)"><g><path d="M 3.828125 0.078125 C 3.191406 0.078125 2.613281 -0.0625 2.09375 -0.34375 C 1.582031 -0.632812 1.175781 -1.03125 0.875 -1.53125 C 0.582031 -2.03125 0.4375 -2.585938 0.4375 -3.203125 C 0.4375 -3.828125 0.582031 -4.390625 0.875 -4.890625 C 1.175781 -5.390625 1.582031 -5.78125 2.09375 -6.0625 C 2.613281 -6.351562 3.195312 -6.5 3.84375 -6.5 C 4.34375 -6.5 4.800781 -6.410156 5.21875 -6.234375 C 5.632812 -6.066406 5.988281 -5.820312 6.28125 -5.5 L 5.6875 -4.921875 C 5.207031 -5.421875 4.601562 -5.671875 3.875 -5.671875 C 3.40625 -5.671875 2.976562 -5.5625 2.59375 -5.34375 C 2.207031 -5.132812 1.90625 -4.84375 1.6875 -4.46875 C 1.46875 -4.09375 1.359375 -3.671875 1.359375 -3.203125 C 1.359375 -2.742188 1.46875 -2.328125 1.6875 -1.953125 C 1.90625 -1.578125 2.207031 -1.28125 2.59375 -1.0625 C 2.976562 -0.851562 3.40625 -0.75 3.875 -0.75 C 4.59375 -0.75 5.195312 -1.003906 5.6875 -1.515625 L 6.28125 -0.9375 C 5.988281 -0.601562 5.632812 -0.347656 5.21875 -0.171875 C 4.800781 -0.00390625 4.335938 0.078125 3.828125 0.078125 Z M 3.828125 0.078125 "/></g></g></g><g fill="rgb(99.21875%, 92.549133%, 1.179504%)" fill-opacity="1"><g transform="translate(132.226528, 86.267653)"><g><path d="M 3.046875 -2.859375 L 1.875 -1.65625 L 1.875 0 L 0.96875 0 L 0.96875 -6.421875 L 1.875 -6.421875 L 1.875 -2.828125 L 5.359375 -6.421875 L 6.40625 -6.421875 L 3.671875 -3.53125 L 6.578125 0 L 5.515625 0 Z M 3.046875 -2.859375 "/></g></g></g><g fill="rgb(100%, 100%, 100%)" fill-opacity="1"><g transform="translate(52.860393, 107.809936)"><g><path d="M 3.640625 -1.15625 L 1.1875 -1.15625 L 0.671875 0 L 0 0 L 2.078125 -4.609375 L 2.734375 -4.609375 L 4.828125 0 L 4.140625 0 Z M 3.40625 -1.6875 L 2.40625 -3.9375 L 1.40625 -1.6875 Z M 3.40625 -1.6875 "/></g></g></g><g fill="rgb(100%, 100%, 100%)" fill-opacity="1"><g transform="translate(59.333455, 107.809936)"><g><path d="M 2.75 0.046875 C 2.289062 0.046875 1.875 -0.0507812 1.5 -0.25 C 1.132812 -0.457031 0.84375 -0.738281 0.625 -1.09375 C 0.414062 -1.457031 0.3125 -1.863281 0.3125 -2.3125 C 0.3125 -2.757812 0.414062 -3.160156 0.625 -3.515625 C 0.84375 -3.878906 1.140625 -4.160156 1.515625 -4.359375 C 1.890625 -4.566406 2.304688 -4.671875 2.765625 -4.671875 C 3.117188 -4.671875 3.445312 -4.609375 3.75 -4.484375 C 4.050781 -4.367188 4.304688 -4.191406 4.515625 -3.953125 L 4.09375 -3.53125 C 3.738281 -3.894531 3.304688 -4.078125 2.796875 -4.078125 C 2.453125 -4.078125 2.140625 -4 1.859375 -3.84375 C 1.578125 -3.695312 1.359375 -3.488281 1.203125 -3.21875 C 1.046875 -2.945312 0.96875 -2.644531 0.96875 -2.3125 C 0.96875 -1.976562 1.046875 -1.675781 1.203125 -1.40625 C 1.359375 -1.132812 1.578125 -0.921875 1.859375 -0.765625 C 2.140625 -0.609375 2.453125 -0.53125 2.796875 -0.53125 C 3.304688 -0.53125 3.738281 -0.71875 4.09375 -1.09375 L 4.515625 -0.671875 C 4.304688 -0.429688 4.050781 -0.25 3.75 -0.125 C 3.445312 -0.0078125 3.113281 0.046875 2.75 0.046875 Z M 2.75 0.046875 "/></g></g></g><g fill="rgb(100%, 100%, 100%)" fill-opacity="1"><g transform="translate(65.747206, 107.809936)"><g><path d="M 4.046875 -0.578125 L 4.046875 0 L 0.6875 0 L 0.6875 -4.609375 L 3.953125 -4.609375 L 3.953125 -4.046875 L 1.359375 -4.046875 L 1.359375 -2.625 L 3.671875 -2.625 L 3.671875 -2.0625 L 1.359375 -2.0625 L 1.359375 -0.578125 Z M 4.046875 -0.578125 "/></g></g></g><g fill="rgb(100%, 100%, 100%)" fill-opacity="1"><g transform="translate(71.811655, 107.809936)"><g><path d="M 3.78125 0 L 2.78125 -1.421875 C 2.65625 -1.410156 2.5625 -1.40625 2.5 -1.40625 L 1.359375 -1.40625 L 1.359375 0 L 0.6875 0 L 0.6875 -4.609375 L 2.5 -4.609375 C 3.09375 -4.609375 3.5625 -4.46875 3.90625 -4.1875 C 4.25 -3.90625 4.421875 -3.507812 4.421875 -3 C 4.421875 -2.644531 4.332031 -2.34375 4.15625 -2.09375 C 3.976562 -1.84375 3.726562 -1.660156 3.40625 -1.546875 L 4.5 0 Z M 2.46875 -1.96875 C 2.882812 -1.96875 3.203125 -2.054688 3.421875 -2.234375 C 3.648438 -2.410156 3.765625 -2.664062 3.765625 -3 C 3.765625 -3.34375 3.648438 -3.601562 3.421875 -3.78125 C 3.203125 -3.957031 2.882812 -4.046875 2.46875 -4.046875 L 1.359375 -4.046875 L 1.359375 -1.96875 Z M 2.46875 -1.96875 "/></g></g></g><g fill="rgb(100%, 100%, 100%)" fill-opacity="1"><g transform="translate(78.251769, 107.809936)"><g><path d="M 2.75 0.046875 C 2.289062 0.046875 1.875 -0.0507812 1.5 -0.25 C 1.132812 -0.457031 0.84375 -0.738281 0.625 -1.09375 C 0.414062 -1.457031 0.3125 -1.863281 0.3125 -2.3125 C 0.3125 -2.757812 0.414062 -3.160156 0.625 -3.515625 C 0.84375 -3.878906 1.140625 -4.160156 1.515625 -4.359375 C 1.890625 -4.566406 2.304688 -4.671875 2.765625 -4.671875 C 3.117188 -4.671875 3.445312 -4.609375 3.75 -4.484375 C 4.050781 -4.367188 4.304688 -4.191406 4.515625 -3.953125 L 4.09375 -3.53125 C 3.738281 -3.894531 3.304688 -4.078125 2.796875 -4.078125 C 2.453125 -4.078125 2.140625 -4 1.859375 -3.84375 C 1.578125 -3.695312 1.359375 -3.488281 1.203125 -3.21875 C 1.046875 -2.945312 0.96875 -2.644531 0.96875 -2.3125 C 0.96875 -1.976562 1.046875 -1.675781 1.203125 -1.40625 C 1.359375 -1.132812 1.578125 -0.921875 1.859375 -0.765625 C 2.140625 -0.609375 2.453125 -0.53125 2.796875 -0.53125 C 3.304688 -0.53125 3.738281 -0.71875 4.09375 -1.09375 L 4.515625 -0.671875 C 4.304688 -0.429688 4.050781 -0.25 3.75 -0.125 C 3.445312 -0.0078125 3.113281 0.046875 2.75 0.046875 Z M 2.75 0.046875 "/></g></g></g><g fill="rgb(100%, 100%, 100%)" fill-opacity="1"><g transform="translate(84.665518, 107.809936)"><g><path d="M 3.640625 -1.15625 L 1.1875 -1.15625 L 0.671875 0 L 0 0 L 2.078125 -4.609375 L 2.734375 -4.609375 L 4.828125 0 L 4.140625 0 Z M 3.40625 -1.6875 L 2.40625 -3.9375 L 1.40625 -1.6875 Z M 3.40625 -1.6875 "/></g></g></g><g fill="rgb(100%, 100%, 100%)" fill-opacity="1"><g transform="translate(91.138579, 107.809936)"><g><path d="M 4.65625 -4.609375 L 4.65625 0 L 4.125 0 L 1.359375 -3.4375 L 1.359375 0 L 0.6875 0 L 0.6875 -4.609375 L 1.234375 -4.609375 L 4 -1.171875 L 4 -4.609375 Z M 4.65625 -4.609375 "/></g></g></g><g fill="rgb(100%, 100%, 100%)" fill-opacity="1"><g transform="translate(98.138886, 107.809936)"><g><path d="M 0.6875 -4.609375 L 2.640625 -4.609375 C 3.128906 -4.609375 3.5625 -4.507812 3.9375 -4.3125 C 4.3125 -4.125 4.601562 -3.851562 4.8125 -3.5 C 5.019531 -3.15625 5.125 -2.757812 5.125 -2.3125 C 5.125 -1.851562 5.019531 -1.445312 4.8125 -1.09375 C 4.601562 -0.75 4.3125 -0.476562 3.9375 -0.28125 C 3.5625 -0.09375 3.128906 0 2.640625 0 L 0.6875 0 Z M 2.59375 -0.578125 C 2.96875 -0.578125 3.296875 -0.648438 3.578125 -0.796875 C 3.867188 -0.941406 4.085938 -1.144531 4.234375 -1.40625 C 4.390625 -1.664062 4.46875 -1.96875 4.46875 -2.3125 C 4.46875 -2.65625 4.390625 -2.957031 4.234375 -3.21875 C 4.085938 -3.476562 3.867188 -3.679688 3.578125 -3.828125 C 3.296875 -3.972656 2.96875 -4.046875 2.59375 -4.046875 L 1.359375 -4.046875 L 1.359375 -0.578125 Z M 2.59375 -0.578125 "/></g></g></g><g fill="rgb(100%, 100%, 100%)" fill-opacity="1"><g transform="translate(105.231459, 107.809936)"><g><path d="M 2.78125 0.046875 C 2.3125 0.046875 1.890625 -0.0507812 1.515625 -0.25 C 1.140625 -0.457031 0.84375 -0.738281 0.625 -1.09375 C 0.414062 -1.457031 0.3125 -1.863281 0.3125 -2.3125 C 0.3125 -2.75 0.414062 -3.148438 0.625 -3.515625 C 0.84375 -3.878906 1.140625 -4.160156 1.515625 -4.359375 C 1.890625 -4.566406 2.3125 -4.671875 2.78125 -4.671875 C 3.238281 -4.671875 3.65625 -4.566406 4.03125 -4.359375 C 4.40625 -4.160156 4.695312 -3.878906 4.90625 -3.515625 C 5.113281 -3.160156 5.21875 -2.757812 5.21875 -2.3125 C 5.21875 -1.863281 5.113281 -1.457031 4.90625 -1.09375 C 4.695312 -0.738281 4.40625 -0.457031 4.03125 -0.25 C 3.65625 -0.0507812 3.238281 0.046875 2.78125 0.046875 Z M 2.78125 -0.53125 C 3.113281 -0.53125 3.414062 -0.609375 3.6875 -0.765625 C 3.957031 -0.921875 4.171875 -1.132812 4.328125 -1.40625 C 4.484375 -1.675781 4.5625 -1.976562 4.5625 -2.3125 C 4.5625 -2.644531 4.484375 -2.945312 4.328125 -3.21875 C 4.171875 -3.488281 3.957031 -3.695312 3.6875 -3.84375 C 3.414062 -4 3.113281 -4.078125 2.78125 -4.078125 C 2.4375 -4.078125 2.125 -4 1.84375 -3.84375 C 1.570312 -3.695312 1.359375 -3.488281 1.203125 -3.21875 C 1.046875 -2.945312 0.96875 -2.644531 0.96875 -2.3125 C 0.96875 -1.976562 1.046875 -1.675781 1.203125 -1.40625 C 1.359375 -1.132812 1.570312 -0.921875 1.84375 -0.765625 C 2.125 -0.609375 2.4375 -0.53125 2.78125 -0.53125 Z M 2.78125 -0.53125 "/></g></g></g><g fill="rgb(100%, 100%, 100%)" fill-opacity="1"><g transform="translate(112.416298, 107.809936)"><g/></g></g><g fill="rgb(100%, 100%, 100%)" fill-opacity="1"><g transform="translate(115.83795, 107.809936)"><g><path d="M 3.78125 0 L 2.78125 -1.421875 C 2.65625 -1.410156 2.5625 -1.40625 2.5 -1.40625 L 1.359375 -1.40625 L 1.359375 0 L 0.6875 0 L 0.6875 -4.609375 L 2.5 -4.609375 C 3.09375 -4.609375 3.5625 -4.46875 3.90625 -4.1875 C 4.25 -3.90625 4.421875 -3.507812 4.421875 -3 C 4.421875 -2.644531 4.332031 -2.34375 4.15625 -2.09375 C 3.976562 -1.84375 3.726562 -1.660156 3.40625 -1.546875 L 4.5 0 Z M 2.46875 -1.96875 C 2.882812 -1.96875 3.203125 -2.054688 3.421875 -2.234375 C 3.648438 -2.410156 3.765625 -2.664062 3.765625 -3 C 3.765625 -3.34375 3.648438 -3.601562 3.421875 -3.78125 C 3.203125 -3.957031 2.882812 -4.046875 2.46875 -4.046875 L 1.359375 -4.046875 L 1.359375 -1.96875 Z M 2.46875 -1.96875 "/></g></g></g><g fill="rgb(100%, 100%, 100%)" fill-opacity="1"><g transform="translate(122.278062, 107.809936)"><g><path d="M 4.046875 -0.578125 L 4.046875 0 L 0.6875 0 L 0.6875 -4.609375 L 3.953125 -4.609375 L 3.953125 -4.046875 L 1.359375 -4.046875 L 1.359375 -2.625 L 3.671875 -2.625 L 3.671875 -2.0625 L 1.359375 -2.0625 L 1.359375 -0.578125 Z M 4.046875 -0.578125 "/></g></g></g><g fill="rgb(100%, 100%, 100%)" fill-opacity="1"><g transform="translate(128.342509, 107.809936)"><g><path d="M 3.640625 -1.15625 L 1.1875 -1.15625 L 0.671875 0 L 0 0 L 2.078125 -4.609375 L 2.734375 -4.609375 L 4.828125 0 L 4.140625 0 Z M 3.40625 -1.6875 L 2.40625 -3.9375 L 1.40625 -1.6875 Z M 3.40625 -1.6875 "/></g></g></g><g fill="rgb(100%, 100%, 100%)" fill-opacity="1"><g transform="translate(134.815569, 107.809936)"><g><path d="M 0.6875 -4.609375 L 1.359375 -4.609375 L 1.359375 -0.578125 L 3.84375 -0.578125 L 3.84375 0 L 0.6875 0 Z M 0.6875 -4.609375 "/></g></g></g><g fill="rgb(100%, 100%, 100%)" fill-opacity="1"><g transform="translate(140.379138, 107.809936)"><g><path d="M 0.6875 -4.609375 L 1.359375 -4.609375 L 1.359375 0 L 0.6875 0 Z M 0.6875 -4.609375 "/></g></g></g><g fill="rgb(100%, 100%, 100%)" fill-opacity="1"><g transform="translate(144.071001, 107.809936)"><g><path d="M 0.6875 -4.609375 L 2.640625 -4.609375 C 3.128906 -4.609375 3.5625 -4.507812 3.9375 -4.3125 C 4.3125 -4.125 4.601562 -3.851562 4.8125 -3.5 C 5.019531 -3.15625 5.125 -2.757812 5.125 -2.3125 C 5.125 -1.851562 5.019531 -1.445312 4.8125 -1.09375 C 4.601562 -0.75 4.3125 -0.476562 3.9375 -0.28125 C 3.5625 -0.09375 3.128906 0 2.640625 0 L 0.6875 0 Z M 2.59375 -0.578125 C 2.96875 -0.578125 3.296875 -0.648438 3.578125 -0.796875 C 3.867188 -0.941406 4.085938 -1.144531 4.234375 -1.40625 C 4.390625 -1.664062 4.46875 -1.96875 4.46875 -2.3125 C 4.46875 -2.65625 4.390625 -2.957031 4.234375 -3.21875 C 4.085938 -3.476562 3.867188 -3.679688 3.578125 -3.828125 C 3.296875 -3.972656 2.96875 -4.046875 2.59375 -4.046875 L 1.359375 -4.046875 L 1.359375 -0.578125 Z M 2.59375 -0.578125 "/></g></g></g><g fill="rgb(100%, 100%, 100%)" fill-opacity="1"><g transform="translate(151.163574, 107.809936)"><g><path d="M 3.640625 -1.15625 L 1.1875 -1.15625 L 0.671875 0 L 0 0 L 2.078125 -4.609375 L 2.734375 -4.609375 L 4.828125 0 L 4.140625 0 Z M 3.40625 -1.6875 L 2.40625 -3.9375 L 1.40625 -1.6875 Z M 3.40625 -1.6875 "/></g></g></g><g fill="rgb(100%, 100%, 100%)" fill-opacity="1"><g transform="translate(157.636634, 107.809936)"><g><path d="M 0.6875 -4.609375 L 2.640625 -4.609375 C 3.128906 -4.609375 3.5625 -4.507812 3.9375 -4.3125 C 4.3125 -4.125 4.601562 -3.851562 4.8125 -3.5 C 5.019531 -3.15625 5.125 -2.757812 5.125 -2.3125 C 5.125 -1.851562 5.019531 -1.445312 4.8125 -1.09375 C 4.601562 -0.75 4.3125 -0.476562 3.9375 -0.28125 C 3.5625 -0.09375 3.128906 0 2.640625 0 L 0.6875 0 Z M 2.59375 -0.578125 C 2.96875 -0.578125 3.296875 -0.648438 3.578125 -0.796875 C 3.867188 -0.941406 4.085938 -1.144531 4.234375 -1.40625 C 4.390625 -1.664062 4.46875 -1.96875 4.46875 -2.3125 C 4.46875 -2.65625 4.390625 -2.957031 4.234375 -3.21875 C 4.085938 -3.476562 3.867188 -3.679688 3.578125 -3.828125 C 3.296875 -3.972656 2.96875 -4.046875 2.59375 -4.046875 L 1.359375 -4.046875 L 1.359375 -0.578125 Z M 2.59375 -0.578125 "/></g></g></g><g fill="rgb(100%, 100%, 100%)" fill-opacity="1"><g transform="translate(164.729207, 107.809936)"><g><path d="M 4.046875 -0.578125 L 4.046875 0 L 0.6875 0 L 0.6875 -4.609375 L 3.953125 -4.609375 L 3.953125 -4.046875 L 1.359375 -4.046875 L 1.359375 -2.625 L 3.671875 -2.625 L 3.671875 -2.0625 L 1.359375 -2.0625 L 1.359375 -0.578125 Z M 4.046875 -0.578125 "/></g></g></g><g fill="rgb(100%, 100%, 100%)" fill-opacity="1"><g transform="translate(170.793655, 107.809936)"><g><path d="M 2.03125 0.046875 C 1.6875 0.046875 1.351562 -0.00390625 1.03125 -0.109375 C 0.707031 -0.210938 0.453125 -0.351562 0.265625 -0.53125 L 0.515625 -1.046875 C 0.691406 -0.878906 0.914062 -0.742188 1.1875 -0.640625 C 1.46875 -0.546875 1.75 -0.5 2.03125 -0.5 C 2.414062 -0.5 2.703125 -0.5625 2.890625 -0.6875 C 3.078125 -0.820312 3.171875 -1 3.171875 -1.21875 C 3.171875 -1.375 3.117188 -1.5 3.015625 -1.59375 C 2.921875 -1.695312 2.796875 -1.773438 2.640625 -1.828125 C 2.484375 -1.878906 2.269531 -1.941406 2 -2.015625 C 1.65625 -2.097656 1.375 -2.179688 1.15625 -2.265625 C 0.945312 -2.347656 0.765625 -2.472656 0.609375 -2.640625 C 0.453125 -2.816406 0.375 -3.050781 0.375 -3.34375 C 0.375 -3.59375 0.4375 -3.816406 0.5625 -4.015625 C 0.695312 -4.210938 0.894531 -4.367188 1.15625 -4.484375 C 1.425781 -4.609375 1.757812 -4.671875 2.15625 -4.671875 C 2.425781 -4.671875 2.691406 -4.632812 2.953125 -4.5625 C 3.210938 -4.488281 3.441406 -4.390625 3.640625 -4.265625 L 3.421875 -3.734375 C 3.222656 -3.859375 3.015625 -3.953125 2.796875 -4.015625 C 2.578125 -4.078125 2.363281 -4.109375 2.15625 -4.109375 C 1.78125 -4.109375 1.5 -4.039062 1.3125 -3.90625 C 1.125 -3.769531 1.03125 -3.59375 1.03125 -3.375 C 1.03125 -3.21875 1.082031 -3.085938 1.1875 -2.984375 C 1.289062 -2.890625 1.421875 -2.8125 1.578125 -2.75 C 1.734375 -2.695312 1.945312 -2.640625 2.21875 -2.578125 C 2.5625 -2.492188 2.835938 -2.410156 3.046875 -2.328125 C 3.265625 -2.242188 3.445312 -2.113281 3.59375 -1.9375 C 3.75 -1.769531 3.828125 -1.546875 3.828125 -1.265625 C 3.828125 -1.015625 3.757812 -0.789062 3.625 -0.59375 C 3.488281 -0.394531 3.285156 -0.238281 3.015625 -0.125 C 2.753906 -0.0078125 2.425781 0.046875 2.03125 0.046875 Z M 2.03125 0.046875 "/></g></g></g><path stroke-linecap="round" transform="matrix(0.750951, 0.00216962, -0.00182375, 0.631239, 36.057927, 89.32942)" fill="none" stroke-linejoin="miter" d="M 0.50026 0.00241798 L 207.134152 -0.0023413 " stroke="rgb(100%, 100%, 100%)" stroke-width="1" stroke-opacity="1" stroke-miterlimit="4"/><path stroke-linecap="round" transform="matrix(0.750951, 0.00216962, -0.00182375, 0.631239, 36.057927, 40.916859)" fill="none" stroke-linejoin="miter" d="M 0.500255 0.0000384189 L 207.134162 0.00146731 " stroke="rgb(100%, 100%, 100%)" stroke-width="1" stroke-opacity="1" stroke-miterlimit="4"/></svg>